<mxfile host="app.diagrams.net" agent="Mozilla/5.0 (Windows NT 10.0; Win64; x64) AppleWebKit/537.36 (KHTML, like Gecko) Chrome/135.0.0.0 Safari/537.36 Edg/135.0.0.0" version="26.2.12">
  <diagram name="第 1 页" id="IKvGyScWCA9rS33Go8v0">
    <mxGraphModel dx="1440" dy="887" grid="1" gridSize="10" guides="1" tooltips="1" connect="1" arrows="1" fold="1" page="1" pageScale="1" pageWidth="827" pageHeight="1169" math="0" shadow="0">
      <root>
        <mxCell id="0" />
        <mxCell id="1" parent="0" />
        <mxCell id="-I3a5BAJUDlum_WCG1Jb-1" value="Material" style="rounded=0;whiteSpace=wrap;html=1;" parent="1" vertex="1">
          <mxGeometry x="60" y="340" width="140" height="50" as="geometry" />
        </mxCell>
        <mxCell id="-I3a5BAJUDlum_WCG1Jb-2" value="Element" style="rounded=0;whiteSpace=wrap;html=1;" parent="1" vertex="1">
          <mxGeometry x="70" y="130" width="120" height="60" as="geometry" />
        </mxCell>
        <mxCell id="-I3a5BAJUDlum_WCG1Jb-3" value="ElementState" style="rounded=0;whiteSpace=wrap;html=1;" parent="1" vertex="1">
          <mxGeometry x="293.5" y="130" width="120" height="60" as="geometry" />
        </mxCell>
        <mxCell id="-I3a5BAJUDlum_WCG1Jb-4" value="MaterialPoint" style="rounded=0;whiteSpace=wrap;html=1;" parent="1" vertex="1">
          <mxGeometry x="300" y="240" width="120" height="60" as="geometry" />
        </mxCell>
        <mxCell id="-I3a5BAJUDlum_WCG1Jb-5" value="ConcretMaterialPointData" style="rounded=0;whiteSpace=wrap;html=1;" parent="1" vertex="1">
          <mxGeometry x="610" y="470" width="170" height="60" as="geometry" />
        </mxCell>
        <mxCell id="-I3a5BAJUDlum_WCG1Jb-6" value="MaterialPointData" style="rounded=0;whiteSpace=wrap;html=1;" parent="1" vertex="1">
          <mxGeometry x="635" y="330" width="120" height="60" as="geometry" />
        </mxCell>
        <mxCell id="-I3a5BAJUDlum_WCG1Jb-7" value="ConcreteMaterial" style="rounded=0;whiteSpace=wrap;html=1;" parent="1" vertex="1">
          <mxGeometry x="60" y="475" width="140" height="50" as="geometry" />
        </mxCell>
        <mxCell id="-I3a5BAJUDlum_WCG1Jb-8" value="" style="endArrow=diamondThin;endFill=1;endSize=24;html=1;rounded=0;entryX=1;entryY=0.5;entryDx=0;entryDy=0;exitX=1;exitY=0.5;exitDx=0;exitDy=0;" parent="1" source="-I3a5BAJUDlum_WCG1Jb-4" target="-I3a5BAJUDlum_WCG1Jb-3" edge="1">
          <mxGeometry width="160" relative="1" as="geometry">
            <mxPoint x="530" y="140" as="sourcePoint" />
            <mxPoint x="690" y="140" as="targetPoint" />
            <Array as="points">
              <mxPoint x="480" y="270" />
              <mxPoint x="480" y="160" />
            </Array>
          </mxGeometry>
        </mxCell>
        <mxCell id="-I3a5BAJUDlum_WCG1Jb-9" value="" style="endArrow=diamondThin;endFill=0;endSize=24;html=1;rounded=0;entryX=0.5;entryY=1;entryDx=0;entryDy=0;exitX=0;exitY=0.5;exitDx=0;exitDy=0;" parent="1" source="-I3a5BAJUDlum_WCG1Jb-6" target="-I3a5BAJUDlum_WCG1Jb-4" edge="1">
          <mxGeometry width="160" relative="1" as="geometry">
            <mxPoint x="380" y="370" as="sourcePoint" />
            <mxPoint x="540" y="370" as="targetPoint" />
            <Array as="points">
              <mxPoint x="360" y="360" />
            </Array>
          </mxGeometry>
        </mxCell>
        <mxCell id="-I3a5BAJUDlum_WCG1Jb-10" value="Extends" style="endArrow=block;endSize=16;endFill=0;html=1;rounded=0;entryX=0.5;entryY=1;entryDx=0;entryDy=0;" parent="1" source="-I3a5BAJUDlum_WCG1Jb-7" target="-I3a5BAJUDlum_WCG1Jb-1" edge="1">
          <mxGeometry width="160" relative="1" as="geometry">
            <mxPoint x="120" y="470" as="sourcePoint" />
            <mxPoint x="280" y="470" as="targetPoint" />
          </mxGeometry>
        </mxCell>
        <mxCell id="-I3a5BAJUDlum_WCG1Jb-11" value="Extends" style="endArrow=block;endSize=16;endFill=0;html=1;rounded=0;entryX=0.435;entryY=1.079;entryDx=0;entryDy=0;entryPerimeter=0;" parent="1" edge="1">
          <mxGeometry width="160" relative="1" as="geometry">
            <mxPoint x="694.5" y="466" as="sourcePoint" />
            <mxPoint x="695.5" y="390" as="targetPoint" />
          </mxGeometry>
        </mxCell>
        <mxCell id="-I3a5BAJUDlum_WCG1Jb-12" value="Use" style="endArrow=open;endSize=12;dashed=1;html=1;rounded=0;entryX=0;entryY=0.5;entryDx=0;entryDy=0;exitX=1;exitY=0.5;exitDx=0;exitDy=0;" parent="1" source="-I3a5BAJUDlum_WCG1Jb-7" target="-I3a5BAJUDlum_WCG1Jb-5" edge="1">
          <mxGeometry width="160" relative="1" as="geometry">
            <mxPoint x="210" y="500" as="sourcePoint" />
            <mxPoint x="370" y="490" as="targetPoint" />
          </mxGeometry>
        </mxCell>
        <mxCell id="-I3a5BAJUDlum_WCG1Jb-13" value="" style="endArrow=diamondThin;endFill=1;endSize=24;html=1;rounded=0;entryX=1;entryY=0.5;entryDx=0;entryDy=0;" parent="1" target="-I3a5BAJUDlum_WCG1Jb-2" edge="1">
          <mxGeometry width="160" relative="1" as="geometry">
            <mxPoint x="290" y="160" as="sourcePoint" />
            <mxPoint x="490" y="420" as="targetPoint" />
          </mxGeometry>
        </mxCell>
        <mxCell id="-I3a5BAJUDlum_WCG1Jb-14" value="" style="endArrow=open;endFill=1;endSize=12;html=1;rounded=0;exitX=0.5;exitY=1;exitDx=0;exitDy=0;entryX=0.5;entryY=0;entryDx=0;entryDy=0;" parent="1" source="-I3a5BAJUDlum_WCG1Jb-2" target="-I3a5BAJUDlum_WCG1Jb-1" edge="1">
          <mxGeometry width="160" relative="1" as="geometry">
            <mxPoint x="330" y="420" as="sourcePoint" />
            <mxPoint x="490" y="420" as="targetPoint" />
          </mxGeometry>
        </mxCell>
        <mxCell id="p6HGup5aHRNR5emIu0F1-3" value="Material" style="swimlane;fontStyle=1;align=center;verticalAlign=top;childLayout=stackLayout;horizontal=1;startSize=26;horizontalStack=0;resizeParent=1;resizeParentMax=0;resizeLast=0;collapsible=1;marginBottom=0;whiteSpace=wrap;html=1;" vertex="1" parent="1">
          <mxGeometry x="230" y="740" width="310" height="220" as="geometry" />
        </mxCell>
        <mxCell id="p6HGup5aHRNR5emIu0F1-4" value="+ m_density: double" style="text;strokeColor=none;fillColor=none;align=left;verticalAlign=top;spacingLeft=4;spacingRight=4;overflow=hidden;rotatable=0;points=[[0,0.5],[1,0.5]];portConstraint=eastwest;whiteSpace=wrap;html=1;" vertex="1" parent="p6HGup5aHRNR5emIu0F1-3">
          <mxGeometry y="26" width="310" height="26" as="geometry" />
        </mxCell>
        <mxCell id="p6HGup5aHRNR5emIu0F1-5" value="" style="line;strokeWidth=1;fillColor=none;align=left;verticalAlign=middle;spacingTop=-1;spacingLeft=3;spacingRight=3;rotatable=0;labelPosition=right;points=[];portConstraint=eastwest;strokeColor=inherit;" vertex="1" parent="p6HGup5aHRNR5emIu0F1-3">
          <mxGeometry y="52" width="310" height="8" as="geometry" />
        </mxCell>
        <mxCell id="p6HGup5aHRNR5emIu0F1-6" value="+ LocalCS(type): Matrix3d&lt;div&gt;+ Stress(MaterialPoint): Matrix3ds&lt;/div&gt;&lt;div&gt;+ Tangent(MaterialPoint): Tensor4ds&lt;/div&gt;&lt;div&gt;&lt;br&gt;&lt;/div&gt;&lt;div&gt;+ Pk2Stress(MaaterialPoint) : Matrix3ds&lt;/div&gt;&lt;div&gt;+ MaterialTangent(MaterialPoint) :Tensor4dmm&lt;/div&gt;&lt;div&gt;&lt;br&gt;&lt;/div&gt;&lt;div&gt;+SecantTangent(materialPoint) ：Tensor4dmm&lt;/div&gt;&lt;div&gt;+ StrainEnergy() :double&lt;/div&gt;&lt;div&gt;&lt;br&gt;&lt;/div&gt;" style="text;strokeColor=none;fillColor=none;align=left;verticalAlign=top;spacingLeft=4;spacingRight=4;overflow=hidden;rotatable=0;points=[[0,0.5],[1,0.5]];portConstraint=eastwest;whiteSpace=wrap;html=1;" vertex="1" parent="p6HGup5aHRNR5emIu0F1-3">
          <mxGeometry y="60" width="310" height="160" as="geometry" />
        </mxCell>
      </root>
    </mxGraphModel>
  </diagram>
</mxfile>
